<?xml version="1.0" standalone="no"?>
<!DOCTYPE svg PUBLIC "-//W3C//DTD SVG 20010904//EN"
 "http://www.w3.org/TR/2001/REC-SVG-20010904/DTD/svg10.dtd">
<svg version="1.0" xmlns="http://www.w3.org/2000/svg"
 width="1280.000000pt" height="723.000000pt" viewBox="0 0 1280.000000 723.000000"
 preserveAspectRatio="xMidYMid meet">

<g transform="translate(0.000000,723.000000) scale(0.100000,-0.100000)"
fill="#000000" stroke="none">
<path d="M0 3615 l0 -3615 6400 0 6400 0 0 3615 0 3615 -6400 0 -6400 0 0
-3615z m6629 2426 c53 -31 81 -80 81 -139 0 -57 -23 -105 -66 -134 -40 -27
-41 -36 -23 -253 8 -93 17 -146 27 -157 8 -9 40 -22 71 -28 140 -27 240 -78
344 -177 38 -35 81 -69 95 -74 51 -20 118 5 241 89 l114 78 1 64 c1 77 25 119
86 150 108 55 237 -7 248 -119 6 -64 -10 -103 -60 -146 -57 -48 -106 -54 -170
-21 l-51 26 -46 -28 c-25 -16 -66 -40 -91 -55 -78 -44 -93 -66 -93 -144 0 -54
6 -84 32 -148 44 -111 61 -199 61 -320 l0 -105 48 -24 c60 -31 140 -53 217
-61 48 -5 71 -2 113 14 66 26 112 27 161 1 76 -38 111 -112 90 -187 -32 -118
-173 -169 -261 -95 -38 32 -67 95 -68 144 0 31 -4 37 -31 47 -18 6 -59 11 -93
11 -37 1 -88 10 -131 25 l-70 24 -21 -62 c-45 -133 -129 -272 -219 -361 -112
-112 -276 -206 -422 -241 -39 -9 -79 -25 -88 -35 -27 -30 -75 -180 -75 -236 0
-45 3 -54 28 -70 56 -37 92 -107 84 -164 -5 -37 -58 -99 -98 -116 -111 -46
-224 27 -224 144 0 67 39 119 108 142 30 11 32 15 32 58 0 26 13 94 30 151 16
58 28 106 26 108 -1 2 -50 5 -107 6 -126 4 -206 24 -324 82 -202 98 -373 288
-467 518 l-32 78 -41 -6 c-66 -11 -146 -35 -222 -69 -61 -26 -73 -35 -73 -55
0 -36 -45 -106 -82 -129 -73 -45 -143 -36 -204 26 -68 68 -66 171 5 235 72 65
174 57 240 -18 l29 -34 47 30 c71 45 135 76 196 93 93 27 93 27 100 168 6 126
11 146 90 353 l22 60 -20 46 c-15 34 -46 69 -114 128 -51 44 -99 81 -106 81
-8 0 -32 -12 -54 -27 -29 -19 -57 -28 -97 -31 -49 -3 -63 0 -100 25 -81 53
-102 147 -49 224 34 50 71 72 130 77 94 8 166 -46 191 -143 9 -36 27 -59 103
-129 97 -89 144 -120 206 -131 57 -11 79 -1 162 75 110 100 285 179 396 180
49 0 56 17 94 198 19 95 35 181 35 191 0 12 -14 20 -44 29 -159 42 -158 263 1
314 58 19 94 14 152 -21z m-204 -408 c-3 -21 -18 -86 -31 -144 l-25 -106 -87
-23 c-90 -24 -239 -94 -283 -133 -13 -12 -46 -41 -72 -65 -39 -35 -51 -41 -74
-36 -62 15 -213 106 -213 129 0 43 188 200 334 280 131 71 320 131 420 134
l38 1 -7 -37z m298 23 c229 -44 460 -169 625 -338 l64 -65 -37 -31 c-21 -16
-66 -45 -101 -62 -79 -40 -98 -37 -173 34 -107 101 -225 162 -364 187 -76 14
-70 4 -86 134 -6 44 -14 97 -17 118 -8 43 -11 42 89 23z m-1175 -626 c43 -21
94 -46 114 -54 42 -17 43 -10 -6 -120 -46 -103 -67 -188 -77 -311 -5 -65 -11
-120 -13 -122 -4 -4 -250 -32 -254 -29 -10 10 0 264 12 328 29 152 104 348
133 348 8 0 49 -18 91 -40z m2092 -67 c52 -124 80 -253 86 -388 3 -66 2 -138
-3 -160 l-9 -40 -54 4 c-30 2 -80 11 -110 20 l-55 17 -6 97 c-9 125 -25 211
-61 317 l-29 85 30 25 c37 32 151 100 167 100 6 0 26 -35 44 -77z m-82 -884
c34 -17 62 -35 62 -40 0 -22 -81 -166 -129 -230 -119 -157 -257 -271 -436
-359 -117 -58 -287 -110 -359 -110 l-29 0 8 83 c7 85 21 129 43 133 7 1 8 0 3
-2 -19 -10 -32 -69 -21 -95 8 -18 10 -19 7 -4 -4 18 0 20 30 17 22 -3 40 1 51
11 47 44 100 84 125 95 28 12 35 28 15 34 -7 3 3 12 21 21 39 20 44 21 36 7
-3 -5 -2 -10 4 -10 5 0 13 5 16 11 4 6 12 8 19 6 7 -3 13 5 14 16 1 16 -1 18
-7 8 -5 -7 -13 -11 -19 -7 -5 3 -31 -4 -57 -15 -26 -11 -49 -18 -52 -16 -2 3
6 8 19 13 29 9 162 89 209 125 20 16 40 25 45 21 5 -4 6 -3 2 2 -4 5 18 37 50
71 31 35 79 100 106 146 27 46 55 94 62 105 13 21 15 21 56 7 24 -8 71 -28
106 -44z m-1849 -41 c138 -228 326 -378 552 -441 l79 -22 0 -119 0 -118 -36 7
c-195 36 -385 131 -556 278 -109 94 -237 262 -283 374 l-15 35 43 16 c23 9 67
29 97 44 30 14 58 27 62 27 4 1 29 -36 57 -81z m1060 -452 c-2 -2 -22 -9 -43
-15 -22 -5 -35 -6 -30 -2 9 9 37 18 63 20 8 0 12 -1 10 -3z m44 -13 c-7 -2
-19 -2 -25 0 -7 3 -2 5 12 5 14 0 19 -2 13 -5z m5 -18 c2 -2 -11 -5 -27 -7
-16 -2 -28 -1 -25 3 2 4 -2 10 -8 12 -7 3 3 3 22 0 19 -3 36 -7 38 -8z m39 9
c-3 -3 -12 -4 -19 -1 -8 3 -5 6 6 6 11 1 17 -2 13 -5z m-140 -66 c-3 -8 -6 -5
-6 6 -1 11 2 17 5 13 3 -3 4 -12 1 -19z m-3144 -849 c23 -6 51 -17 61 -25 22
-15 16 -34 -28 -89 -22 -27 -23 -27 -53 -12 -87 46 -209 21 -187 -37 7 -18 39
-34 96 -46 89 -19 156 -50 189 -87 29 -33 31 -41 27 -90 -8 -87 -63 -142 -166
-164 -83 -17 -223 5 -275 43 -16 12 -16 15 9 51 17 26 31 37 42 34 124 -37
150 -41 191 -28 28 8 46 21 53 37 16 35 -10 57 -96 78 -92 22 -162 60 -187 99
-16 25 -19 45 -16 90 3 49 8 62 37 92 18 19 52 41 74 49 49 17 171 20 229 5z
m345 -266 l-3 -278 -67 -3 -68 -3 0 281 0 280 70 0 70 0 -2 -277z m372 115
l135 -163 3 163 2 163 68 -3 67 -3 0 -275 0 -275 -51 -3 -52 -3 -104 123 c-57
68 -117 140 -132 161 -16 20 -31 37 -35 37 -3 0 -6 -71 -6 -157 l0 -158 -65 0
-65 0 -3 278 -3 277 53 0 53 0 135 -162z m856 -116 c68 -151 124 -276 124
-278 0 -3 -30 -4 -66 -2 -72 3 -73 4 -99 71 l-15 37 -129 0 c-142 0 -142 0
-164 -66 l-14 -39 -71 -3 c-40 -2 -72 -1 -72 2 0 3 31 76 69 163 37 87 85 199
106 248 66 158 55 146 136 143 l70 -3 125 -273z m482 268 c106 -15 162 -76
162 -176 0 -126 -90 -194 -256 -194 l-73 0 -3 -87 -3 -88 -61 -3 -61 -3 -6 83
c-9 109 -9 463 0 471 9 10 228 8 301 -3z m612 -12 c133 -58 141 -250 13 -324
-39 -23 -62 -29 -142 -33 l-96 -6 -3 -87 -3 -88 -64 0 -65 0 0 281 0 281 163
-4 c116 -3 172 -9 197 -20z m507 -158 c40 -96 80 -191 89 -210 l16 -35 25 60
c115 277 148 348 168 355 33 13 125 11 125 -3 0 -6 -18 -47 -39 -92 -22 -44
-58 -120 -81 -170 -23 -49 -62 -134 -87 -187 l-46 -98 -69 0 -69 0 -41 88
c-95 203 -206 458 -201 465 3 4 35 7 71 5 l66 -3 73 -175z m792 -25 c48 -110
104 -233 124 -274 20 -41 37 -76 37 -78 0 -2 -33 -3 -72 -1 l-73 3 -20 52 -20
53 -131 0 -132 0 -26 -55 -26 -55 -65 0 c-36 0 -65 2 -65 4 0 2 16 36 35 75
20 39 60 126 89 194 132 300 122 286 214 283 l43 -1 88 -200z m396 -25 l0
-225 126 -3 127 -3 4 -42 c3 -23 3 -45 1 -49 -2 -5 -92 -8 -199 -8 l-194 0 0
123 c0 68 -3 192 -7 275 l-6 150 24 5 c13 3 47 4 74 3 l50 -1 0 -225z m465
218 c0 -7 2 -110 3 -228 l2 -215 128 -3 127 -3 0 -50 0 -49 -197 2 -198 3 -3
278 -2 277 70 0 c49 0 70 -4 70 -12z m758 -52 l3 -56 -141 0 -140 0 0 -55 0
-55 120 0 120 0 0 -55 0 -55 -120 0 c-117 0 -120 0 -126 -24 -3 -13 -4 -38 -2
-57 l3 -34 143 -3 142 -3 0 -49 0 -50 -210 0 -210 0 0 273 c0 151 2 276 5 279
3 2 96 4 207 2 l203 -2 3 -56z m191 44 c25 -43 117 -180 121 -180 3 1 34 46
69 100 l64 100 74 0 c40 0 73 -4 73 -9 0 -5 -41 -66 -90 -135 -122 -170 -130
-187 -130 -313 l0 -103 -70 0 -70 0 0 117 0 116 -105 159 c-58 87 -105 161
-105 164 0 4 36 4 80 2 58 -2 83 -7 89 -18z m-3855 -686 c40 -6 46 -10 46 -30
0 -21 -5 -24 -40 -24 l-40 0 0 -100 0 -100 -35 0 -35 0 0 100 0 100 -40 0
c-36 0 -40 3 -40 24 0 13 6 27 13 29 18 8 117 8 171 1z m425 -3 c8 -5 11 -16
6 -30 -5 -18 -14 -21 -61 -21 -47 0 -54 -2 -54 -20 0 -17 7 -20 50 -20 47 0
50 -2 50 -25 0 -23 -3 -25 -50 -25 -47 0 -50 -2 -50 -25 0 -24 3 -25 55 -25
54 0 55 0 55 -30 l0 -30 -74 0 c-111 0 -106 -7 -106 130 0 85 3 120 13 123 21
9 151 7 166 -2z m431 -6 c18 -9 30 -23 30 -36 0 -23 -27 -36 -43 -20 -6 6 -30
11 -53 11 -34 0 -47 -5 -63 -26 -27 -35 -26 -59 4 -89 28 -29 74 -33 109 -10
21 14 25 14 37 -1 9 -11 10 -20 2 -32 -39 -63 -182 -51 -218 19 -32 62 -12
148 44 182 33 21 113 22 151 2z m314 9 c11 -4 16 -19 16 -45 l0 -39 45 0 45 0
0 40 c0 38 2 40 30 40 l30 0 0 -125 0 -125 -30 0 c-26 0 -30 4 -31 28 -3 81 0
77 -49 77 l-45 0 -3 -52 c-3 -51 -4 -53 -33 -53 l-29 0 0 123 c0 68 3 127 7
130 8 9 27 9 47 1z m565 -5 c24 -9 31 -16 29 -33 -3 -19 -8 -21 -56 -18 -47 3
-53 1 -50 -14 2 -11 16 -21 35 -25 75 -15 110 -66 79 -115 -47 -71 -217 -52
-189 22 4 11 12 14 32 8 40 -12 94 -10 98 2 2 7 -17 17 -46 24 -75 18 -108 68
-76 116 27 42 82 54 144 33z m-699 -459 c-11 -7 -1 -10 36 -10 28 0 76 -5 105
-10 30 -6 110 -13 179 -16 69 -2 175 -7 235 -10 139 -8 155 -8 180 -2 11 3 52
2 90 -2 39 -3 98 -4 133 0 35 3 65 3 68 -1 2 -4 0 -9 -6 -11 -5 -1 13 -4 40
-5 28 0 50 3 50 9 0 7 4 7 13 1 6 -6 35 -11 62 -12 28 -1 58 -4 69 -7 10 -4
22 -1 26 6 6 10 15 9 44 -1 28 -10 39 -10 48 -1 15 15 48 16 48 2 0 -5 -4 -10
-10 -10 -5 0 -10 -4 -10 -10 0 -5 9 -10 20 -10 11 0 20 4 20 9 0 5 9 11 20 14
11 3 18 1 15 -3 -3 -5 -1 -11 5 -15 6 -4 7 -11 4 -17 -5 -8 1 -9 17 -5 13 4
33 7 44 8 19 0 19 1 1 8 -11 4 22 7 72 6 50 -1 95 -4 98 -8 12 -12 44 -8 44 6
1 6 9 2 20 -11 14 -17 25 -22 40 -17 13 4 20 2 20 -7 0 -9 19 -13 73 -13 39 0
74 2 77 6 8 10 71 -2 64 -12 -3 -5 9 -9 25 -9 17 0 31 -4 31 -10 0 -5 5 -10
11 -10 5 0 7 5 3 12 -5 8 -2 9 10 5 10 -4 32 -7 49 -7 23 0 28 -3 18 -9 -10
-6 32 -10 114 -10 71 -1 130 -3 132 -4 9 -10 -1386 -17 -2772 -15 -1784 3
-2328 8 -2215 19 41 5 90 8 109 8 54 0 91 11 91 27 0 9 4 13 10 9 5 -3 7 -12
3 -20 -3 -9 1 -15 10 -15 8 0 17 4 19 10 5 15 96 32 173 31 39 0 72 4 76 10 5
8 12 8 27 0 17 -9 23 -8 31 6 7 13 24 18 63 20 29 2 85 5 123 7 39 1 84 7 100
11 27 7 29 7 16 -8 -19 -24 1 -21 22 3 18 21 37 26 37 10 0 -5 14 -10 32 -10
34 0 29 14 -7 23 -11 3 -2 5 20 4 22 0 52 3 68 7 18 6 27 4 27 -3 0 -6 -7 -11
-15 -11 -8 0 -15 -4 -15 -10 0 -16 30 -11 37 6 5 13 17 15 78 10 39 -3 75 -3
79 1 11 11 90 10 98 -1 4 -6 12 -6 20 1 7 6 41 9 76 8 34 -1 62 1 62 5 0 3 32
6 70 6 39 -1 70 2 70 5 0 3 62 9 138 13 75 4 169 10 207 12 288 21 607 29 585
14z m1517 -86 c-3 -3 -12 -4 -19 -1 -8 3 -5 6 6 6 11 1 17 -2 13 -5z m366 -41
c-7 -2 -19 -2 -25 0 -7 3 -2 5 12 5 14 0 19 -2 13 -5z"/>
<path d="M6469 5961 c-20 -20 -29 -39 -29 -61 0 -46 47 -90 95 -90 27 0 44 8
66 29 37 37 38 79 3 120 -36 43 -93 44 -135 2z"/>
<path d="M7638 5405 c-31 -17 -58 -62 -58 -96 0 -11 15 -36 34 -55 27 -27 42
-34 74 -34 67 0 118 67 96 128 -19 54 -97 84 -146 57z"/>
<path d="M5305 5398 c-55 -30 -71 -95 -34 -142 40 -51 118 -50 159 1 61 77
-38 189 -125 141z"/>
<path d="M6477 5159 c-35 -27 -67 -89 -69 -136 -2 -64 69 -102 170 -90 36 4
53 12 74 36 35 39 35 53 2 120 -43 85 -117 115 -177 70z"/>
<path d="M6304 5129 c-65 -51 -144 -128 -144 -139 0 -16 27 -23 65 -16 29 6
42 18 81 79 72 110 71 134 -2 76z"/>
<path d="M6700 5135 c0 -14 102 -207 138 -260 79 -120 187 -190 239 -157 20
12 43 78 43 121 0 31 -7 46 -30 70 -55 55 -118 58 -208 12 -23 -12 -47 -19
-52 -16 -19 12 -9 34 25 55 19 12 35 27 35 34 0 17 -55 68 -120 110 -52 34
-70 42 -70 31z"/>
<path d="M5988 4910 c-31 -34 -38 -48 -38 -81 0 -106 66 -137 167 -79 56 32
103 97 103 141 0 21 -8 26 -60 42 -96 28 -127 24 -172 -23z"/>
<path d="M5862 4818 c-11 -35 -23 -101 -27 -147 l-7 -84 28 8 c16 4 50 10 76
14 l48 6 -41 78 c-31 59 -40 89 -41 127 0 28 -4 52 -8 55 -5 3 -18 -23 -28
-57z"/>
<path d="M7166 4797 c-4 -20 -18 -61 -31 -92 -14 -31 -25 -59 -25 -64 0 -11
106 -91 120 -91 14 0 4 80 -22 179 -26 100 -34 113 -42 68z"/>
<path d="M6489 4790 c-68 -12 -113 -36 -159 -87 -58 -62 -82 -121 -81 -198 0
-77 20 -127 69 -178 137 -143 370 -111 483 65 29 45 33 59 33 117 -2 133 -103
255 -229 276 -22 4 -47 8 -55 10 -8 1 -36 -1 -61 -5z"/>
<path d="M5915 4560 c-11 -4 -33 -22 -50 -40 -95 -100 54 -283 178 -219 39 20
57 51 56 99 0 104 -103 194 -184 160z"/>
<path d="M7052 4547 c-130 -96 -105 -237 41 -237 59 0 102 21 127 63 30 48 26
90 -12 133 -31 35 -81 64 -111 64 -7 0 -27 -11 -45 -23z"/>
<path d="M7250 4295 c-25 -7 -58 -18 -73 -24 -39 -15 -127 -14 -175 3 -49 17
-49 17 -112 -99 -68 -125 -91 -166 -125 -220 -40 -62 -85 -150 -85 -166 0 -30
174 35 275 102 118 79 158 135 195 275 23 85 33 97 100 114 25 7 54 16 65 20
l20 9 -20 -1 c-11 0 -40 -6 -65 -13z"/>
<path d="M5720 4288 c0 -3 38 -15 85 -28 47 -13 89 -28 93 -34 5 -6 17 -42 26
-79 36 -147 92 -214 246 -291 86 -43 194 -76 207 -63 21 22 -135 278 -212 344
-47 42 -108 67 -265 112 -111 32 -180 46 -180 39z"/>
<path d="M5078 4264 c-35 -18 -48 -43 -48 -89 0 -71 86 -119 151 -85 26 15 49
62 49 104 0 68 -85 107 -152 70z"/>
<path d="M6216 4245 c24 -56 58 -124 61 -121 6 5 -19 76 -26 76 -5 0 -11 10
-14 23 -4 12 -13 31 -22 42 -13 17 -13 14 1 -20z"/>
<path d="M7880 4273 c-54 -15 -90 -56 -90 -104 0 -11 15 -36 34 -55 26 -26 42
-34 69 -34 42 0 92 37 101 75 6 25 -16 89 -36 101 -18 11 -63 21 -78 17z"/>
<path d="M6475 4093 c-91 -24 -109 -162 -30 -232 44 -38 77 -47 116 -31 26 11
80 67 104 109 19 34 52 142 44 147 -5 3 -9 -4 -9 -15 0 -11 -4 -23 -10 -26 -5
-3 -10 -2 -10 3 0 27 -150 60 -205 45z"/>
<path d="M6460 3276 c0 -2 8 -10 18 -17 15 -13 16 -12 3 4 -13 16 -21 21 -21
13z"/>
<path d="M6458 3242 c7 -2 3 -16 -9 -35 -34 -57 -22 -115 31 -142 29 -15 112
-17 103 -2 -2 4 0 7 6 7 16 0 39 41 45 82 5 32 2 40 -30 67 -32 29 -41 31 -96
29 -33 -1 -55 -4 -50 -6z"/>
<path d="M6615 3223 c8 -7 17 -13 21 -13 4 1 11 -4 16 -12 7 -9 8 -8 4 5 -3
10 -6 22 -6 27 0 4 -11 8 -24 8 -22 0 -23 -2 -11 -15z"/>
<path d="M7245 3859 c-4 -6 -4 -13 -1 -16 3 -4 6 -1 6 6 0 8 6 11 16 7 8 -3
12 -2 9 4 -8 13 -22 13 -30 -1z"/>
<path d="M6840 3411 c0 -5 9 -7 20 -4 11 3 20 7 20 9 0 2 -9 4 -20 4 -11 0
-20 -4 -20 -9z"/>
<path d="M6682 3390 c0 -14 2 -19 5 -12 2 6 2 18 0 25 -3 6 -5 1 -5 -13z"/>
<path d="M6183 3603 c19 -5 24 -23 5 -23 -6 0 -9 -2 -6 -5 3 -3 20 -2 39 2
l34 7 -30 12 c-16 7 -37 13 -45 12 -10 0 -10 -2 3 -5z"/>
<path d="M6240 3571 c-24 -7 -24 -7 9 -14 19 -4 36 -5 39 -2 3 3 -1 5 -9 5
-11 0 -11 2 1 10 13 9 13 10 0 9 -8 -1 -26 -4 -40 -8z"/>
<path d="M6300 3566 c0 -2 7 -6 15 -10 8 -3 15 -1 15 4 0 6 -7 10 -15 10 -8 0
-15 -2 -15 -4z"/>
<path d="M4909 2417 l-37 -92 75 -3 c42 -2 78 -1 80 2 6 5 -69 186 -77 186 -3
0 -21 -42 -41 -93z"/>
<path d="M5460 2465 l0 -75 75 0 c90 0 115 17 115 78 0 52 -35 72 -124 72
l-66 0 0 -75z"/>
<path d="M6020 2465 l0 -75 69 0 c79 0 107 16 117 67 5 26 1 37 -19 57 -23 23
-34 26 -97 26 l-70 0 0 -75z"/>
<path d="M7371 2479 c-5 -13 -20 -52 -35 -86 -14 -34 -26 -67 -26 -73 0 -10
132 -15 142 -4 6 5 -55 170 -66 182 -3 2 -10 -6 -15 -19z"/>
<path d="M7688 1393 c7 -3 16 -2 19 1 4 3 -2 6 -13 5 -11 0 -14 -3 -6 -6z"/>
<path d="M8540 1330 c0 -5 5 -10 10 -10 6 0 10 5 10 10 0 6 -4 10 -10 10 -5 0
-10 -4 -10 -10z"/>
</g>
</svg>
